<?xml version="1.0" encoding="utf-8"?>
<!-- Generator: Adobe Illustrator 25.0.1, SVG Export Plug-In . SVG Version: 6.00 Build 0)  -->
<svg version="1.1" id="Capa_1" xmlns="http://www.w3.org/2000/svg" xmlns:xlink="http://www.w3.org/1999/xlink" x="0px" y="0px"
	 viewBox="0 0 434.48 72.26" style="enable-background:new 0 0 434.48 72.26;" xml:space="preserve">
<style type="text/css">
	.st0{fill:none;}
	.st1{fill:#FFFFFF;}
	.st2{fill:#E3BA85;stroke:#E3BA85;stroke-width:4;stroke-miterlimit:10;}
</style>
<g>
	<rect x="4.61" y="7.04" class="st0" width="578.04" height="75.25"/>
	<path class="st1" d="M6.91,61.04l0.07-1.44h6.84l2.38-45.79H9.36l0.14-1.44h19.15l-0.07,1.44h-7.2l-2.38,45.72h13.75
		c1.3,0,2.38-0.16,3.24-0.47c0.86-0.31,1.58-0.94,2.16-1.87c0.58-0.94,1.03-2.27,1.37-4c0.34-1.73,0.62-3.98,0.86-6.77h1.3
		L40.9,61.04H6.91z"/>
	<path class="st1" d="M59.47,61.84c-3.22,0-5.83-1.46-7.85-4.39c-2.02-2.93-3.02-7.08-3.02-12.46c0-3.17,0.41-6.07,1.22-8.71
		c0.82-2.64,1.94-4.91,3.38-6.8c1.44-1.9,3.16-3.37,5.15-4.43c1.99-1.06,4.16-1.58,6.52-1.58c2.59,0,4.87,0.66,6.84,1.98
		c1.97,1.32,3.58,2.87,4.82,4.64l0.36-6.26h1.51L76.9,51.4c-0.05,1.06-0.1,2.14-0.14,3.24c-0.05,1.1-0.07,1.8-0.07,2.09
		c0,1.06,0.13,1.81,0.4,2.27c0.26,0.46,0.71,0.68,1.33,0.68c0.96,0,1.87-0.54,2.74-1.62c0.86-1.08,1.58-2.41,2.16-4l1.3,0.43
		c-0.82,2.21-1.86,3.94-3.13,5.18c-1.27,1.25-2.8,1.87-4.57,1.87c-1.63,0-2.86-0.48-3.67-1.44C72.41,59.15,72,57.85,72,56.22
		c0-0.48,0.02-1.2,0.07-2.16c0.05-0.96,0.1-1.97,0.14-3.02l0.58-7.99c-0.62,2.5-1.38,4.88-2.27,7.16c-0.89,2.28-1.88,4.27-2.99,5.98
		c-1.1,1.7-2.33,3.07-3.67,4.1C62.52,61.32,61.05,61.84,59.47,61.84z M60.19,59.96c1.49,0,2.99-0.85,4.5-2.56
		c1.51-1.7,2.87-3.92,4.07-6.66c1.2-2.74,2.21-5.86,3.02-9.36c0.82-3.5,1.32-7.03,1.51-10.58c-0.91-1.49-2.04-2.82-3.38-4
		c-1.34-1.18-2.93-1.76-4.75-1.76c-3.17,0-5.82,1.79-7.96,5.36c-2.14,3.58-3.2,8.44-3.2,14.58c0,5.09,0.61,8.86,1.84,11.3
		C57.06,58.74,58.51,59.96,60.19,59.96z"/>
	<path class="st1" d="M127.73,61.98L114.33,16.4l-5.62,43.2h7.42l-0.07,1.44h-15.34l0.14-1.44h6.26l5.98-45.86h-6.41l0.07-1.37
		h11.66l12.24,41.76l16.85-41.76h11.52l-0.07,1.37h-6.34l0.94,45.86h6.48l-0.07,1.44h-18.72l0.14-1.44h6.98l-0.86-43.06
		l-18.36,45.43H127.73z"/>
	<path class="st1" d="M176.9,61.84c-3.22,0-5.83-1.46-7.85-4.39c-2.02-2.93-3.02-7.08-3.02-12.46c0-3.17,0.41-6.07,1.22-8.71
		c0.82-2.64,1.94-4.91,3.38-6.8c1.44-1.9,3.16-3.37,5.15-4.43c1.99-1.06,4.16-1.58,6.52-1.58c2.59,0,4.87,0.66,6.84,1.98
		c1.97,1.32,3.58,2.87,4.82,4.64l0.36-6.26h1.51l-1.51,27.58c-0.05,1.06-0.1,2.14-0.14,3.24c-0.05,1.1-0.07,1.8-0.07,2.09
		c0,1.06,0.13,1.81,0.4,2.27c0.26,0.46,0.71,0.68,1.33,0.68c0.96,0,1.87-0.54,2.74-1.62c0.86-1.08,1.58-2.41,2.16-4l1.3,0.43
		c-0.82,2.21-1.86,3.94-3.13,5.18c-1.27,1.25-2.8,1.87-4.57,1.87c-1.63,0-2.86-0.48-3.67-1.44c-0.82-0.96-1.22-2.26-1.22-3.89
		c0-0.48,0.02-1.2,0.07-2.16c0.05-0.96,0.1-1.97,0.14-3.02l0.58-7.99c-0.62,2.5-1.38,4.88-2.27,7.16c-0.89,2.28-1.88,4.27-2.99,5.98
		c-1.1,1.7-2.33,3.07-3.67,4.1C179.95,61.32,178.49,61.84,176.9,61.84z M177.62,59.96c1.49,0,2.99-0.85,4.5-2.56
		c1.51-1.7,2.87-3.92,4.07-6.66c1.2-2.74,2.21-5.86,3.02-9.36c0.82-3.5,1.32-7.03,1.51-10.58c-0.91-1.49-2.04-2.82-3.38-4
		c-1.34-1.18-2.93-1.76-4.75-1.76c-3.17,0-5.82,1.79-7.96,5.36c-2.14,3.58-3.2,8.44-3.2,14.58c0,5.09,0.61,8.86,1.84,11.3
		C174.49,58.74,175.94,59.96,177.62,59.96z"/>
	<path class="st1" d="M208.29,61.04l1.58-29.59c0.05-0.96,0.1-1.84,0.14-2.63c0.05-0.79,0.07-1.33,0.07-1.62
		c0-0.62-0.14-1.07-0.43-1.33c-0.29-0.26-0.82-0.4-1.58-0.4c-0.58,0-1.21,0.05-1.91,0.14c-0.7,0.1-1.33,0.22-1.91,0.36l0.07-1.37
		c1.01-0.24,2.1-0.43,3.28-0.58c1.18-0.14,2.29-0.22,3.35-0.22c1.49,0,2.52,0.22,3.1,0.65c0.58,0.43,0.86,1.18,0.86,2.23
		c0,0.19-0.04,0.72-0.11,1.58c-0.07,0.86-0.13,1.92-0.18,3.17l-0.72,12.74c0.96-3.98,1.93-7.32,2.92-10.01
		c0.98-2.69,2.03-4.82,3.13-6.41c1.1-1.58,2.3-2.7,3.6-3.35c1.3-0.65,2.74-0.97,4.32-0.97c1.3,0,2.31,0.34,3.06,1.01
		c0.74,0.67,1.12,1.56,1.12,2.66c0,0.77-0.25,1.43-0.76,1.98c-0.5,0.55-1.12,0.83-1.84,0.83c-0.77,0-1.4-0.26-1.91-0.79
		c-0.5-0.53-0.76-1.15-0.76-1.87c0-0.43,0.07-0.83,0.22-1.19s0.36-0.66,0.65-0.9c-2.21,0-4.13,0.96-5.76,2.88
		c-1.63,1.92-3.01,4.44-4.14,7.56c-1.13,3.12-2.06,6.71-2.81,10.76c-0.74,4.06-1.33,8.22-1.76,12.49l-0.22,2.16H208.29z"/>
	<path class="st1" d="M245.66,61.84c-3.22,0-5.83-1.46-7.85-4.39c-2.02-2.93-3.02-7.08-3.02-12.46c0-3.17,0.41-6.07,1.22-8.71
		c0.82-2.64,1.94-4.91,3.38-6.8c1.44-1.9,3.16-3.37,5.15-4.43c1.99-1.06,4.16-1.58,6.52-1.58c2.59,0,4.87,0.66,6.84,1.98
		c1.97,1.32,3.58,2.87,4.82,4.64l0.36-6.26h1.51l-1.51,27.58c-0.05,1.06-0.1,2.14-0.14,3.24c-0.05,1.1-0.07,1.8-0.07,2.09
		c0,1.06,0.13,1.81,0.4,2.27c0.26,0.46,0.71,0.68,1.33,0.68c0.96,0,1.87-0.54,2.74-1.62c0.86-1.08,1.58-2.41,2.16-4l1.3,0.43
		c-0.82,2.21-1.86,3.94-3.13,5.18c-1.27,1.25-2.8,1.87-4.57,1.87c-1.63,0-2.86-0.48-3.67-1.44c-0.82-0.96-1.22-2.26-1.22-3.89
		c0-0.48,0.02-1.2,0.07-2.16c0.05-0.96,0.1-1.97,0.14-3.02l0.58-7.99c-0.62,2.5-1.38,4.88-2.27,7.16c-0.89,2.28-1.88,4.27-2.99,5.98
		c-1.1,1.7-2.33,3.07-3.67,4.1C248.71,61.32,247.25,61.84,245.66,61.84z M246.38,59.96c1.49,0,2.99-0.85,4.5-2.56
		c1.51-1.7,2.87-3.92,4.07-6.66c1.2-2.74,2.21-5.86,3.02-9.36c0.82-3.5,1.32-7.03,1.51-10.58c-0.91-1.49-2.04-2.82-3.38-4
		c-1.34-1.18-2.93-1.76-4.75-1.76c-3.17,0-5.82,1.79-7.96,5.36c-2.14,3.58-3.2,8.44-3.2,14.58c0,5.09,0.61,8.86,1.84,11.3
		C243.25,58.74,244.7,59.96,246.38,59.96z"/>
	<path class="st1" d="M284.9,61.84c-2.59,0-4.66-0.74-6.19-2.23s-2.3-3.67-2.3-6.55c0-0.48,0.04-1.21,0.11-2.2
		c0.07-0.98,0.13-1.86,0.18-2.63l1.58-16.85c0.05-0.91,0.11-1.75,0.18-2.52c0.07-0.77,0.11-1.3,0.11-1.58
		c0-0.62-0.14-1.08-0.43-1.37c-0.29-0.29-0.82-0.43-1.58-0.43c-0.62,0-1.24,0.05-1.84,0.14c-0.6,0.1-1.21,0.24-1.84,0.43l0.07-1.3
		c1.06-0.29,2.17-0.52,3.35-0.68c1.17-0.17,2.22-0.25,3.13-0.25c1.49,0,2.51,0.22,3.06,0.65c0.55,0.43,0.83,1.18,0.83,2.23
		c0,0.24-0.04,0.83-0.11,1.76c-0.07,0.94-0.13,1.93-0.18,2.99l-1.58,17.21c-0.05,0.91-0.11,1.81-0.18,2.7
		c-0.07,0.89-0.11,1.52-0.11,1.91c0,2.11,0.46,3.7,1.37,4.75c0.91,1.06,2.16,1.58,3.74,1.58c2.02,0,3.9-0.64,5.65-1.91
		c1.75-1.27,3.26-3.02,4.54-5.26c1.27-2.23,2.27-4.87,2.99-7.92c0.72-3.05,1.08-6.3,1.08-9.76c0-1.63-0.18-3.14-0.54-4.54
		c-0.36-1.39-0.78-2.47-1.26-3.24c-0.1,0.62-0.35,1.14-0.76,1.55c-0.41,0.41-0.95,0.61-1.62,0.61c-0.72,0-1.32-0.26-1.8-0.79
		c-0.48-0.53-0.72-1.18-0.72-1.94c0-0.72,0.28-1.34,0.83-1.87c0.55-0.53,1.24-0.79,2.05-0.79c1.58,0,2.9,1,3.96,2.99
		c1.06,1.99,1.58,4.57,1.58,7.74c0,3.84-0.43,7.43-1.3,10.76c-0.86,3.34-2.05,6.23-3.56,8.68c-1.51,2.45-3.34,4.38-5.47,5.8
		C289.79,61.13,287.45,61.84,284.9,61.84z"/>
	<path class="st1" d="M317.23,61.55c-1.63,0-2.86-0.48-3.67-1.44c-0.82-0.96-1.22-2.26-1.22-3.89c0-0.48,0.02-1.2,0.07-2.16
		c0.05-0.96,0.1-1.97,0.14-3.02l1.22-19.58c0.05-0.96,0.11-1.84,0.18-2.63c0.07-0.79,0.11-1.33,0.11-1.62
		c0-0.62-0.18-1.07-0.54-1.33c-0.36-0.26-0.85-0.4-1.48-0.4c-0.62,0-1.27,0.05-1.94,0.14c-0.67,0.1-1.32,0.22-1.94,0.36l0.07-1.37
		c1.06-0.24,2.17-0.43,3.35-0.58c1.18-0.14,2.29-0.22,3.35-0.22c1.39,0,2.4,0.22,3.02,0.65c0.62,0.43,0.94,1.18,0.94,2.23
		c0,0.19-0.04,0.72-0.11,1.58c-0.07,0.86-0.13,1.92-0.18,3.17l-1.37,20.02c-0.05,1.01-0.1,2.06-0.14,3.17
		c-0.05,1.1-0.07,1.8-0.07,2.09c0,1.06,0.14,1.81,0.43,2.27c0.29,0.46,0.74,0.68,1.37,0.68c0.91,0,1.79-0.52,2.63-1.55
		c0.84-1.03,1.57-2.39,2.2-4.07l1.3,0.43c-0.77,2.21-1.8,3.94-3.1,5.18C320.54,60.92,319,61.55,317.23,61.55z M316.29,15.76
		c-0.91,0-1.61-0.28-2.09-0.83c-0.48-0.55-0.72-1.26-0.72-2.12c0-0.86,0.29-1.62,0.86-2.27s1.34-0.97,2.3-0.97
		c0.91,0,1.61,0.28,2.09,0.83c0.48,0.55,0.72,1.26,0.72,2.12c0,0.86-0.3,1.62-0.9,2.27C317.96,15.43,317.2,15.76,316.29,15.76z"/>
	<path class="st1" d="M336.02,61.55c-1.58,0-2.83-0.44-3.74-1.33c-0.91-0.89-1.37-2.24-1.37-4.07c0-0.38,0.01-1.07,0.04-2.05
		c0.02-0.98,0.06-2.08,0.11-3.28l2.3-42.34h-5.83l0.07-1.44h10.73l-2.3,44.42c-0.05,1.01-0.1,2.06-0.14,3.17
		c-0.05,1.1-0.07,1.8-0.07,2.09c0,1.06,0.14,1.81,0.43,2.27c0.29,0.46,0.74,0.68,1.37,0.68c0.91,0,1.79-0.52,2.63-1.55
		c0.84-1.03,1.57-2.39,2.2-4.07l1.3,0.43c-0.77,2.21-1.8,3.94-3.1,5.18C339.33,60.92,337.8,61.55,336.02,61.55z"/>
	<path class="st1" d="M354.74,61.55c-1.58,0-2.83-0.44-3.74-1.33c-0.91-0.89-1.37-2.24-1.37-4.07c0-0.38,0.01-1.07,0.04-2.05
		c0.02-0.98,0.06-2.08,0.11-3.28l2.3-42.34h-5.83l0.07-1.44h10.73l-2.3,44.42c-0.05,1.01-0.1,2.06-0.14,3.17
		c-0.05,1.1-0.07,1.8-0.07,2.09c0,1.06,0.14,1.81,0.43,2.27c0.29,0.46,0.74,0.68,1.37,0.68c0.91,0,1.79-0.52,2.63-1.55
		c0.84-1.03,1.57-2.39,2.2-4.07l1.3,0.43c-0.77,2.21-1.8,3.94-3.1,5.18C358.05,60.92,356.52,61.55,354.74,61.55z"/>
	<path class="st1" d="M377.64,61.84c-3.22,0-5.83-1.46-7.85-4.39c-2.02-2.93-3.02-7.08-3.02-12.46c0-3.17,0.41-6.07,1.22-8.71
		c0.82-2.64,1.94-4.91,3.38-6.8c1.44-1.9,3.16-3.37,5.15-4.43c1.99-1.06,4.16-1.58,6.52-1.58c2.59,0,4.87,0.66,6.84,1.98
		c1.97,1.32,3.58,2.87,4.82,4.64l0.36-6.26h1.51l-1.51,27.58c-0.05,1.06-0.1,2.14-0.14,3.24c-0.05,1.1-0.07,1.8-0.07,2.09
		c0,1.06,0.13,1.81,0.4,2.27c0.26,0.46,0.71,0.68,1.33,0.68c0.96,0,1.87-0.54,2.74-1.62c0.86-1.08,1.58-2.41,2.16-4l1.3,0.43
		c-0.82,2.21-1.86,3.94-3.13,5.18c-1.27,1.25-2.8,1.87-4.57,1.87c-1.63,0-2.86-0.48-3.67-1.44c-0.82-0.96-1.22-2.26-1.22-3.89
		c0-0.48,0.02-1.2,0.07-2.16c0.05-0.96,0.09-1.97,0.14-3.02l0.58-7.99c-0.62,2.5-1.38,4.88-2.27,7.16
		c-0.89,2.28-1.88,4.27-2.99,5.98c-1.11,1.7-2.33,3.07-3.67,4.1C380.68,61.32,379.22,61.84,377.64,61.84z M378.36,59.96
		c1.49,0,2.99-0.85,4.5-2.56c1.51-1.7,2.87-3.92,4.07-6.66c1.2-2.74,2.21-5.86,3.02-9.36c0.82-3.5,1.32-7.03,1.51-10.58
		c-0.91-1.49-2.04-2.82-3.38-4c-1.34-1.18-2.93-1.76-4.75-1.76c-3.17,0-5.82,1.79-7.96,5.36c-2.14,3.58-3.2,8.44-3.2,14.58
		c0,5.09,0.61,8.86,1.84,11.3C375.22,58.74,376.67,59.96,378.36,59.96z"/>
	<path class="st2" d="M411.69,61.4c-1.06,0-1.87-0.31-2.45-0.94c-0.58-0.62-0.86-1.44-0.86-2.45c0-0.96,0.35-1.8,1.04-2.52
		c0.7-0.72,1.57-1.08,2.63-1.08c1.05,0,1.87,0.31,2.45,0.94c0.58,0.62,0.86,1.42,0.86,2.38c0,1.01-0.35,1.87-1.04,2.59
		C413.62,61.04,412.75,61.4,411.69,61.4z"/>
</g>
<g>
</g>
<g>
</g>
<g>
</g>
<g>
</g>
<g>
</g>
<g>
</g>
</svg>
